HIERARCHY
ROOT root
{
	OFFSET 0.000000 0.000000 0.000000
	CHANNELS 6 Xposition Yposition Zposition Zrotation Yrotation Xrotation
	JOINT lhip
	{
		OFFSET 0.058581 -0.082280 -0.017664
		CHANNELS 3 Zrotation Yrotation Xrotation
		JOINT lknee
		{
			OFFSET 0.043451 -0.386469 0.008037
			CHANNELS 3 Zrotation Yrotation Xrotation
			JOINT lankle
			{
				OFFSET -0.014790 -0.426874 -0.037428
				CHANNELS 3 Zrotation Yrotation Xrotation
				JOINT ltoe
				{
					OFFSET 0.041054 -0.060286 0.122042
					CHANNELS 3 Zrotation Yrotation Xrotation
					End Site
					{
						OFFSET 0.000000 0.000000 0.000000
					}
				}
			}
		}
	}
	JOINT rhip
	{
		OFFSET -0.060310 -0.090513 -0.013543
		CHANNELS 3 Zrotation Yrotation Xrotation
		JOINT rknee
		{
			OFFSET -0.043257 -0.383688 -0.004843
			CHANNELS 3 Zrotation Yrotation Xrotation
			JOINT rankle
			{
				OFFSET 0.019056 -0.420046 -0.034562
				CHANNELS 3 Zrotation Yrotation Xrotation
				JOINT rtoe
				{
					OFFSET -0.034840 -0.062106 0.130323
					CHANNELS 3 Zrotation Yrotation Xrotation
					End Site
					{
						OFFSET 0.000000 0.000000 0.000000
					}
				}
			}
		}
	}
	JOINT lowerback
	{
		OFFSET 0.004439 0.124404 -0.038385
		CHANNELS 3 Zrotation Yrotation Xrotation
		JOINT upperback
		{
			OFFSET 0.004488 0.137956 0.026820
			CHANNELS 3 Zrotation Yrotation Xrotation
			JOINT chest
			{
				OFFSET -0.002265 0.056032 0.002855
				CHANNELS 3 Zrotation Yrotation Xrotation
				JOINT lowerneck
				{
					OFFSET -0.013390 0.211636 -0.033468
					CHANNELS 3 Zrotation Yrotation Xrotation
					JOINT upperneck
					{
						OFFSET 0.010113 0.088937 0.050410
						CHANNELS 3 Zrotation Yrotation Xrotation
						End Site
						{
							OFFSET 0.000000 0.000000 0.000000
						}
					}
				}
				JOINT lclavicle
				{
					OFFSET 0.071702 0.114000 -0.018898
					CHANNELS 3 Zrotation Yrotation Xrotation
					JOINT lshoulder
					{
						OFFSET 0.122921 0.045205 -0.019046
						CHANNELS 3 Zrotation Yrotation Xrotation
						JOINT lelbow
						{
							OFFSET 0.255332 -0.015649 -0.022946
							CHANNELS 3 Zrotation Yrotation Xrotation
							JOINT lwrist
							{
								OFFSET 0.265709 0.012698 -0.007375
								CHANNELS 3 Zrotation Yrotation Xrotation
								End Site
								{
									OFFSET 0.000000 0.000000 0.000000
								}
							}
						}
					}
				}
				JOINT rclavicle
				{
					OFFSET -0.082954 0.112472 -0.023707
					CHANNELS 3 Zrotation Yrotation Xrotation
					JOINT rshoulder
					{
						OFFSET -0.113228 0.046853 -0.008472
						CHANNELS 3 Zrotation Yrotation Xrotation
						JOINT relbow
						{
							OFFSET -0.260127 -0.014369 -0.031269
							CHANNELS 3 Zrotation Yrotation Xrotation
							JOINT rwrist
							{
								OFFSET -0.269108 0.006794 -0.006027
								CHANNELS 3 Zrotation Yrotation Xrotation
								End Site
								{
									OFFSET 0.000000 0.000000 0.000000
								}
							}
						}
					}
				}
			}
		}
	}
}
MOTION
Frames: 5
Frame Time: 0.033333
0.357047 0.185494 0.987643 85.908793 0.081369 92.599246 6.874218 6.326906 2.881171 -3.954878 3.339283 -2.154281 -0.197863 10.643078 -4.138488 0.000000 -0.000000 0.000000 -8.659744 -2.945075 -2.614936 2.084523 -0.627195 1.715130 5.848661 -3.714664 -4.951113 0.000000 -0.000000 0.000000 -3.621706 2.878899 -7.525050 2.322270 -1.620491 9.406036 -0.596414 0.977217 -3.890894 3.595110 3.484997 6.406125 3.614260 -2.776922 0.938854 -25.319298 -0.424526 -1.857217 -56.819868 -6.277214 21.017261 -0.681659 -18.996691 11.098507 -6.111024 -13.223555 10.450936 28.240604 1.667694 3.974558 55.440744 2.201559 14.487885 -8.334354 25.577116 -5.058074 0.054051 10.575442 -1.585357 
0.356628 0.185526 0.987622 85.823297 0.129080 92.495501 6.932152 6.316426 2.860479 -3.952882 3.385649 -1.919337 -0.190098 10.685633 -4.193158 0.000000 -0.000000 0.000000 -8.564128 -2.860914 -2.686146 2.001992 -0.457287 1.966186 5.848067 -3.820530 -5.042640 0.000000 -0.000000 0.000000 -3.555017 2.770229 -7.142608 2.238431 -1.522085 8.932426 -0.528277 1.017288 -3.618847 3.700496 3.437997 6.063981 3.484710 -2.785408 1.351737 -25.149172 -0.549856 -1.777190 -56.986187 -6.166998 20.910007 -0.600367 -19.332930 11.282881 -6.059266 -12.720915 10.258842 27.960592 1.675899 4.050389 55.913634 2.159872 14.665165 -8.853715 26.193216 -5.305394 -0.042883 9.968390 -1.752248 
0.356342 0.185628 0.987672 85.772271 0.134958 92.391195 6.940600 6.305450 2.837335 -3.941965 3.383746 -1.687183 -0.180761 10.725180 -4.276397 0.000000 -0.000000 0.000000 -8.512079 -2.811490 -2.817975 1.906457 -0.387722 2.359831 5.802639 -3.839392 -5.175124 0.000000 -0.000000 0.000000 -3.573759 2.725246 -6.932920 2.247408 -1.508927 8.832773 -0.496646 1.030775 -3.559076 3.702302 3.403885 5.981798 3.502508 -2.808056 1.435854 -25.120566 -0.590628 -1.782057 -57.033481 -6.208587 20.912210 -0.571981 -19.292730 11.290779 -6.048920 -12.733877 10.231963 27.968749 1.699477 4.029158 55.937058 2.190185 14.660863 -8.900217 26.133139 -5.361242 -0.099951 9.941440 -1.757777 
0.356015 0.185906 0.987784 85.768420 0.121793 92.208133 6.917826 6.308860 2.794842 -3.910980 3.290842 -1.283199 -0.137267 10.813340 -4.383779 0.000000 -0.000000 0.000000 -8.471845 -2.725813 -2.887614 1.791376 -0.321953 2.802151 5.694544 -3.928367 -5.381905 0.000000 -0.000000 0.000000 -3.622718 2.650135 -6.608913 2.226369 -1.527414 8.688181 -0.455938 1.050249 -3.469494 3.700475 3.318989 5.851577 3.528659 -2.845135 1.471296 -24.989542 -0.609357 -1.797715 -57.167865 -6.222371 20.939901 -0.549399 -19.294492 11.396488 -5.973001 -12.703105 10.196460 27.914625 1.710543 4.019693 56.106716 2.166796 14.707153 -8.907009 26.144808 -5.180417 -0.302329 10.110822 -1.850475 
0.355899 0.185994 0.987823 85.747286 0.110669 92.154662 6.903392 6.298412 2.789386 -3.898153 3.275833 -1.175806 -0.137674 10.834789 -4.443749 0.000000 -0.000000 0.000000 -8.445704 -2.683533 -2.955177 1.719638 -0.307307 3.004283 5.689496 -3.955756 -5.443518 0.000000 -0.000000 0.000000 -3.624225 2.660870 -6.505940 2.197708 -1.522268 8.745094 -0.469065 1.133956 -3.607455 3.701297 3.242749 5.927678 3.584070 -2.895366 1.385763 -24.973951 -0.786511 -1.775908 -57.152656 -6.117056 21.030066 -0.508758 -19.275622 11.119955 -6.005038 -12.721617 10.228053 27.730810 2.113234 4.221440 56.370681 1.829796 14.880564 -9.059942 26.229148 -5.587576 -0.257493 10.129400 -2.240899 
